<svg width="24" height="23" viewBox="0 0 24 23" fill="none" xmlns="http://www.w3.org/2000/svg">
<path d="M2.85714 0C1.28599 0 0 1.23241 0 2.7381V20.2619C0 21.7676 1.28599 23 2.85714 23H21.1429C22.714 23 24 21.7676 24 20.2619V2.7381C24 1.23241 22.714 0 21.1429 0H2.85714ZM2.85714 1.09524H21.1429C22.0963 1.09524 22.8571 1.8244 22.8571 2.7381V20.2619C22.8571 21.1756 22.0963 21.9048 21.1429 21.9048H2.85714C1.90373 21.9048 1.14286 21.1756 1.14286 20.2619V2.7381C1.14286 1.8244 1.90373 1.09524 2.85714 1.09524ZM5.71429 3.83975C5.08845 3.83975 4.52527 4.01902 4.10826 4.35529C3.69125 4.69155 3.43527 5.1939 3.43527 5.73182C3.43527 6.75432 4.36074 7.55145 5.53795 7.6303C5.53869 7.63066 5.53943 7.63102 5.54018 7.63137C5.59628 7.6497 5.65503 7.65944 5.71429 7.66025C7.01315 7.66025 7.99331 6.78833 7.99331 5.73182C7.99321 5.72219 7.99283 5.71255 7.99219 5.70294C7.93405 4.66234 6.96597 3.83975 5.71429 3.83975ZM5.71429 4.92215C6.50985 4.92215 6.82398 5.26264 6.85826 5.74572C6.85131 6.21462 6.54862 6.57785 5.71429 6.57785C4.92262 6.57785 4.56473 6.18932 4.56473 5.73182C4.56473 5.50307 4.65183 5.33069 4.83482 5.18313C5.01781 5.03558 5.31155 4.92215 5.71429 4.92215ZM4 8.21429C3.68442 8.21432 3.42861 8.45948 3.42857 8.7619V19.1667C3.42861 19.4691 3.68442 19.7143 4 19.7143H7.42857C7.74415 19.7143 7.99997 19.4691 8 19.1667V15.9548V8.7619C7.99997 8.45948 7.74415 8.21432 7.42857 8.21429H4ZM9.14286 8.21429C8.82728 8.21432 8.57146 8.45948 8.57143 8.7619V19.1667C8.57146 19.4691 8.82728 19.7143 9.14286 19.7143H12.5714C12.887 19.7143 13.1428 19.4691 13.1429 19.1667V13.6905C13.1429 13.2361 13.2722 12.7842 13.5 12.4883C13.7278 12.1924 14.0151 12.0148 14.5614 12.0241C15.1247 12.0334 15.4229 12.2183 15.6484 12.5086C15.874 12.7989 16 13.2341 16 13.6905V19.1667C16 19.4691 16.2558 19.7143 16.5714 19.7143H20C20.3156 19.7143 20.5714 19.4691 20.5714 19.1667V13.2862C20.5714 11.6644 20.0702 10.3798 19.2109 9.5106C18.3517 8.64146 17.1567 8.21429 15.8929 8.21429C14.6917 8.21429 13.7776 8.6003 13.1429 8.994V8.7619C13.1428 8.45948 12.887 8.21432 12.5714 8.21429H9.14286ZM4.57143 9.30952H6.85714V15.9548V18.619H4.57143V9.30952ZM9.71429 9.30952H12V10.1641C12.0001 10.3996 12.1572 10.6087 12.3902 10.6833C12.6233 10.758 12.88 10.6816 13.0279 10.4935C13.0279 10.4935 13.9253 9.30952 15.8929 9.30952C16.8948 9.30952 17.7539 9.62856 18.3817 10.2636C19.0095 10.8986 19.4286 11.8769 19.4286 13.2862V18.619H17.1429V13.6905C17.1429 13.0516 16.9831 12.391 16.5658 11.854C16.1486 11.317 15.4468 10.9431 14.5815 10.9288C13.7117 10.914 12.9986 11.2957 12.5803 11.8391C12.1621 12.3824 12 13.0496 12 13.6905V18.619H9.71428L9.71429 9.30952Z" fill="#F7F7F7"/>
</svg>
