<svg width="24" height="23" viewBox="0 0 24 23" fill="none" xmlns="http://www.w3.org/2000/svg">
<path d="M7.09091 0C3.18135 0 0 3.0488 0 6.79545V16.2045C0 19.9512 3.18135 23 7.09091 23H16.9091C20.8186 23 24 19.9512 24 16.2045V6.79545C24 3.0488 20.8186 0 16.9091 0H7.09091ZM7.09091 1.04545H16.9091C20.229 1.04545 22.9091 3.61389 22.9091 6.79545V16.2045C22.9091 19.3861 20.229 21.9545 16.9091 21.9545H7.09091C3.77101 21.9545 1.09091 19.3861 1.09091 16.2045V6.79545C1.09091 3.61389 3.77101 1.04545 7.09091 1.04545ZM18.5455 4.18182C17.943 4.18182 17.4545 4.64988 17.4545 5.22727C17.4545 5.80466 17.943 6.27273 18.5455 6.27273C19.1479 6.27273 19.6364 5.80466 19.6364 5.22727C19.6364 4.64988 19.1479 4.18182 18.5455 4.18182ZM12 5.75C8.69275 5.75 6 8.33055 6 11.5C6 14.6694 8.69275 17.25 12 17.25C15.3073 17.25 18 14.6694 18 11.5C18 8.33055 15.3073 5.75 12 5.75ZM12 6.79545C14.7177 6.79545 16.9091 8.89556 16.9091 11.5C16.9091 14.1044 14.7177 16.2045 12 16.2045C9.28232 16.2045 7.09091 14.1044 7.09091 11.5C7.09091 8.89556 9.28232 6.79545 12 6.79545Z" fill="#F7F7F7"/>
</svg>
