<svg width="24" height="23" viewBox="0 0 24 23" fill="none" xmlns="http://www.w3.org/2000/svg">
<path d="M12 5.00679e-06C5.37889 5.00679e-06 0 5.15477 0 11.5C0 13.5396 0.583664 15.4429 1.55707 17.1045L0.0193618 22.3652C-0.0306313 22.5365 0.0181043 22.7204 0.14735 22.8481C0.276595 22.9758 0.466884 23.028 0.647077 22.9854L6.37092 21.626C8.05285 22.4865 9.96135 23 12 23C18.6211 23 24 17.8452 24 11.5C24 5.15477 18.6211 5.00679e-06 12 5.00679e-06ZM12 1.00001C18.0571 1.00001 22.9565 5.69524 22.9565 11.5C22.9565 17.3048 18.0571 22 12 22C10.0581 22 8.23937 21.5148 6.65829 20.667C6.54265 20.6051 6.40677 20.5876 6.27819 20.6182L1.26562 21.8086L2.60971 17.2129C2.64858 17.0816 2.62981 16.9409 2.55774 16.8232C1.59688 15.2618 1.04348 13.4451 1.04348 11.5C1.04348 5.69523 5.94285 1.00001 12 1.00001ZM7.63961 5.5C7.30515 5.5 6.82751 5.61925 6.43513 6.02442C6.19945 6.26778 5.2174 7.18476 5.2174 8.79688C5.2174 10.4776 6.43378 11.9279 6.58085 12.1143H6.58187V12.1152C6.56791 12.0977 6.76854 12.3761 7.03635 12.71C7.30416 13.0438 7.67865 13.4823 8.14912 13.957C9.09006 14.9065 10.413 16.0037 12.055 16.6748C12.8112 16.9834 13.4077 17.1697 13.8597 17.3057C14.6973 17.5577 15.4602 17.5194 16.0333 17.4385C16.4622 17.3779 16.934 17.1806 17.4008 16.8975C17.8676 16.6144 18.3251 16.2624 18.5268 15.7275C18.6714 15.3441 18.7448 14.9898 18.7714 14.6983C18.7847 14.5525 18.7864 14.4238 18.7765 14.3047C18.7666 14.1856 18.7772 14.0943 18.6613 13.9121C18.4184 13.5299 18.1434 13.5199 17.8563 13.3838C17.6968 13.3082 17.2428 13.0957 16.7874 12.8877C16.3325 12.68 15.9386 12.496 15.696 12.4131C15.5427 12.3603 15.3556 12.2842 15.0856 12.3135C14.8156 12.3428 14.5489 12.5295 14.3937 12.75C14.2465 12.959 13.6541 13.6292 13.4735 13.8262C13.4711 13.8248 13.4868 13.8317 13.4154 13.7979C13.1921 13.6919 12.9189 13.6018 12.5146 13.3975C12.1104 13.1931 11.6047 12.8913 11.0513 12.4238V12.4229C10.2277 11.728 9.65075 10.8556 9.46875 10.5625C9.48101 10.5485 9.4673 10.5655 9.49321 10.541L9.49422 10.54C9.68023 10.3645 9.84508 10.1548 9.98437 10.001C10.1819 9.78294 10.269 9.59073 10.3634 9.41115C10.5516 9.05323 10.4468 8.65938 10.338 8.45216V8.45119C10.3455 8.46552 10.2791 8.32509 10.2075 8.1631C10.1358 8.00065 10.0443 7.79003 9.94667 7.56544C9.75132 7.11626 9.53323 6.61247 9.40353 6.3174V6.31643C9.25073 5.96886 9.04403 5.71848 8.77377 5.59768C8.50351 5.47688 8.26475 5.51122 8.25509 5.51076H8.25407C8.06122 5.50224 7.84959 5.5 7.63961 5.5ZM7.63961 6.5C7.84076 6.5 8.03907 6.50236 8.20516 6.50977C8.37603 6.51793 8.3654 6.5186 8.33254 6.50391C8.29915 6.48899 8.34445 6.48415 8.44157 6.70508C8.56857 6.99401 8.78774 7.49962 8.98369 7.95019C9.08167 8.17548 9.17337 8.38691 9.2466 8.55273C9.31983 8.71856 9.35952 8.81115 9.40557 8.89942V8.90039L9.40659 8.90136C9.45174 8.98674 9.44775 8.93208 9.43206 8.96191C9.32196 9.17132 9.30702 9.22274 9.19565 9.3457C9.02608 9.53291 8.85311 9.7417 8.76155 9.82812C8.68145 9.90353 8.53692 10.021 8.44667 10.251C8.35629 10.4813 8.39847 10.7973 8.54348 11.0332C8.73654 11.3473 9.37274 12.3396 10.3614 13.1738C10.9841 13.6998 11.5641 14.048 12.0275 14.2822C12.4909 14.5165 12.8683 14.6533 12.9528 14.6934C13.1533 14.7885 13.3725 14.8623 13.6274 14.833C13.8822 14.8037 14.102 14.6555 14.2419 14.5039L14.2429 14.5029C14.429 14.3007 14.9822 13.6954 15.2476 13.3223C15.2589 13.3261 15.2552 13.3231 15.3434 13.3535V13.3545H15.3444C15.3847 13.3682 15.8892 13.5846 16.339 13.79C16.7888 13.9954 17.2453 14.2089 17.3937 14.2793C17.6078 14.3808 17.7089 14.4469 17.7351 14.4473C17.7368 14.4913 17.7386 14.5389 17.732 14.6113C17.7137 14.8122 17.6577 15.0901 17.5455 15.3877C17.4906 15.5334 17.2044 15.8338 16.8434 16.0527C16.4825 16.2716 16.0431 16.4263 15.8804 16.4492C15.3913 16.5183 14.8104 16.5435 14.1726 16.3516C13.7303 16.2185 13.1788 16.0463 12.4647 15.7549C11.0164 15.163 9.78553 14.1558 8.90625 13.2686C8.46661 12.825 8.11438 12.412 7.86379 12.0996C7.61367 11.7878 7.50445 11.6255 7.41338 11.5107L7.41236 11.5098C7.25071 11.3049 6.26087 9.98543 6.26087 8.79688C6.26087 7.539 6.87052 7.04572 7.20041 6.70508C7.37359 6.52625 7.56293 6.5 7.63961 6.5Z" fill="#F7F7F7"/>
</svg>
